<?xml version="1.0" encoding="UTF-8"?>
<svg id="_Слой_2" data-name="Слой 2" xmlns="http://www.w3.org/2000/svg" viewBox="0 0 456.89 560.58">
  <defs>
    <style>
      .cls-1 {
        fill: #fff;
      }
    </style>
  </defs>
  <g id="_Слой_1-2" data-name="Слой 1">
    <g>
      <path class="cls-1" d="M25.06,560.46c-11.87,0-19.1-1.05-21.49-3.13-2.37-2.06-3.57-8.06-3.57-17.86s1.15-15.71,3.42-17.69c2.49-2.16,9.77-3.25,21.64-3.25s19.14,.97,21.8,2.88c2.17,1.54,3.3,5.77,3.37,12.57h-11.7c-.12-2.32-.89-3.86-2.28-4.58-1.72-.88-5.38-1.31-11.19-1.31-8.72,0-10.78,.94-11.57,1.64-.8,.72-1.87,2.51-1.87,9.79,0,5.5,.6,8.6,1.87,9.74,.79,.7,2.84,1.64,11.56,1.64,5.88,0,9.49-.36,11.03-1.09,1.54-.74,2.38-2.35,2.51-4.79h11.64c-.06,6.85-1.16,11.07-3.25,12.57-2.66,1.91-10.03,2.88-21.92,2.88Z"/>
      <path class="cls-1" d="M82.44,560.46c-9.71,0-16.16-.35-19.16-1.04-3.64-.85-5.87-2.64-6.82-5.45-.76-2.24-1.14-7.09-1.14-14.44,0-12.44,1.85-16.57,3.41-17.85,2.53-2.09,10.51-3.15,23.71-3.15s21.12,1.04,23.66,3.09c2.34,1.9,3.52,7.92,3.52,17.91,0,12.44-1.88,16.57-3.46,17.85-2.54,2.05-10.52,3.09-23.71,3.09Zm.06-32.37c-10.21,0-12.55,.83-13.42,1.45-1.45,1.04-2.13,4.21-2.13,9.99s.68,8.89,2.13,9.93c.87,.62,3.2,1.45,13.36,1.45s12.55-.83,13.42-1.45c1.45-1.04,2.13-4.19,2.13-9.93s-.68-8.95-2.13-9.99c-.87-.62-3.2-1.45-13.36-1.45Z"/>
      <path class="cls-1" d="M151.18,559.99l-21.99-30.91c-.18-.38-.42-.88-.68-1.41-.14-.29-.56-1.17-1.39-1.17h-.66v.66c0,.42,.02,.83,.06,1.24,.64,2.1,.97,3.16,1.01,3.32l-.02,28.27h-11.62v-40.76h20.18l21.93,30.85c.18,.41,.42,.93,.68,1.44,.14,.28,.57,1.13,1.39,1.13h.73l-.07-.73c-.04-.37-.06-.74-.06-1.11-.34-1.25-.65-2.32-.96-3.42l.02-28.17h11.62v40.76h-20.19Z"/>
      <path class="cls-1" d="M202.98,560.58c-7.97,0-13.21-.18-15.56-.52-3.48-.52-5.86-1.71-7.08-3.56-1.2-1.81-1.83-5-1.89-9.48h11.63c.1,2.28,.74,3.61,1.94,4.08,.71,.27,2.62,.63,11.01,.63,6.34,0,9.93-.1,10.96-.31,.75-.15,2-.73,2-2.95,0-2.4-1.38-3.32-2.53-3.66-1.45-.44-4.86-.65-10.43-.65-10.63,0-17.39-.76-20.1-2.27-2.59-1.44-3.9-5.16-3.9-11.08,0-5.49,1.68-8.89,5.14-10.4,2.73-1.17,8.98-1.77,18.57-1.77,8.58,0,14.08,.23,16.35,.69,5,1.01,7.51,5.13,7.64,12.58h-11.63c-.1-2.16-.72-3.43-1.88-3.87-.68-.26-2.5-.6-10.42-.6-5.95,0-9.31,.11-10.28,.34-.85,.2-1.86,.9-1.86,3.03,0,1.75,.96,2.95,2.78,3.46,1.6,.45,4.74,.67,9.59,.67,10.51,0,17.35,.82,20.31,2.45,2.84,1.55,4.28,5.28,4.28,11.07,0,5.38-1.57,8.7-4.79,10.17-2.88,1.29-9.56,1.94-19.86,1.94Z"/>
      <polygon class="cls-1" points="252.61 559.87 252.61 528.62 234.01 528.62 234.01 519.05 282.78 519.05 282.78 528.62 264.24 528.62 264.24 559.87 252.61 559.87"/>
      <polygon class="cls-1" points="288.69 559.87 288.69 519.05 332.69 519.05 332.69 527.91 300.31 527.91 300.31 535.12 331.22 535.12 331.22 543.92 300.31 543.92 300.31 551.01 332.69 551.01 332.69 559.87 288.69 559.87"/>
      <path class="cls-1" d="M376.8,559.87v-6.87c0-1.24-.35-2.31-1.02-3.18-.87-1.14-2.18-1.72-3.88-1.72h-21.15v11.77h-11.62v-40.82h37.01c4.44,0,7.6,.8,9.39,2.37,1.92,1.71,2.89,4.82,2.89,9.24,0,3.5-.41,6.1-1.23,7.73-.79,1.57-2.19,2.78-4.18,3.57l-1.48,.59,1.46,.63c2.24,.97,3.72,1.93,4.41,2.85,.68,.9,1.02,2.61,1.02,5.08v8.75h-11.62Zm-26.05-21.34h21.44c1.59,0,2.77-.37,3.5-1.11,.74-.75,1.1-2,1.1-3.82s-.37-3.08-1.13-3.85c-.75-.76-1.92-1.14-3.47-1.14h-21.44v9.92Z"/>
      <path class="cls-1" d="M441.56,559.87l-4-7.06h-26.44l-4,7.06h-13.67l20.18-40.7h21.42l20.18,40.7h-13.67Zm-26.27-16.63h18.05l-7.57-15.92h-2.84l-7.64,15.92Z"/>
      <polygon class="cls-1" points="336.17 437.33 263.62 476.85 1.96 335.88 1.96 256.07 336.17 437.33"/>
      <polygon class="cls-1" points="237.36 268.38 441.62 378.87 441.62 378.87 370.81 417.37 89.21 268.38 83.26 265.19 384.34 103.84 456.89 143.35 455.15 144.32 231.41 265.19 237.36 268.38"/>
      <polygon class="cls-1" points="297.78 39.52 74.51 151.62 74.51 260.71 1.96 226.03 1.96 110.99 225.23 0 297.78 39.52"/>
    </g>
  </g>
</svg>