<svg xmlns="http://www.w3.org/2000/svg" version="1.1" xmlns:xlink="http://www.w3.org/1999/xlink" width="1000" height="1000"><metadata><rdf:RDF xmlns:rdf="http://www.w3.org/1999/02/22-rdf-syntax-ns#" xmlns:dc="http://purl.org/dc/elements/1.1/"><rdf:Description><dc:creator>RealFaviconGenerator</dc:creator><dc:source>https://realfavicongenerator.net</dc:source></rdf:Description></rdf:RDF></metadata><g clip-path="url(#SvgjsClipPath1129)"><rect width="1000" height="1000" fill="#000000"></rect><g transform="matrix(5.46875,0,0,5.46875,150,150)"><svg xmlns="http://www.w3.org/2000/svg" xmlns:xlink="http://www.w3.org/1999/xlink" viewBox="0 0 128 128" width="128" height="128"><defs>
    <style>
      .cls-1 {
        fill: url(#_Новый_образец_градиента_19-4);
      }

      .cls-2 {
        opacity: .5;
      }

      .cls-3 {
        fill: url(#_Безымянный_градиент_203-3);
      }

      .cls-3, .cls-4, .cls-5, .cls-6, .cls-7, .cls-8, .cls-9, .cls-10, .cls-11, .cls-12, .cls-13, .cls-14, .cls-15 {
        mix-blend-mode: screen;
      }

      .cls-16 {
        isolation: isolate;
      }

      .cls-17 {
        opacity: .33;
      }

      .cls-18 {
        opacity: .29;
      }

      .cls-4 {
        fill: url(#_Безымянный_градиент_85-2);
      }

      .cls-19 {
        fill: url(#_Безымянный_градиент_48-2);
      }

      .cls-5 {
        fill: url(#_Безымянный_градиент_203-6);
      }

      .cls-20 {
        opacity: .3;
      }

      .cls-6 {
        fill: url(#_Безымянный_градиент_203-4);
      }

      .cls-7 {
        fill: url(#_Безымянный_градиент_85);
      }

      .cls-21 {
        fill: url(#_Безымянный_градиент_48);
      }

      .cls-8 {
        fill: url(#_Безымянный_градиент_85-7);
      }

      .cls-9 {
        fill: url(#_Безымянный_градиент_85-5);
      }

      .cls-22 {
        fill: url(#_Безымянный_градиент_4);
      }

      .cls-23 {
        fill: url(#_Новый_образец_градиента_19-2);
      }

      .cls-10 {
        fill: url(#_Безымянный_градиент_85-6);
      }

      .cls-11 {
        fill: url(#_Безымянный_градиент_203);
      }

      .cls-12 {
        fill: url(#_Безымянный_градиент_203-5);
      }

      .cls-24 {
        fill: url(#_Новый_образец_градиента_19);
      }

      .cls-13 {
        fill: url(#_Безымянный_градиент_85-4);
      }

      .cls-14 {
        fill: url(#_Безымянный_градиент_203-2);
      }

      .cls-25 {
        fill: url(#_Новый_образец_градиента_19-3);
      }

      .cls-15 {
        fill: url(#_Безымянный_градиент_85-3);
      }
    </style>
    <linearGradient id="_Новый_образец_градиента_19" data-name="Новый образец градиента 19" x1="10.25" y1="96.81" x2="93.7" y2="96.81" gradientUnits="userSpaceOnUse">
      <stop offset="0" stop-color="#8c6034"></stop>
      <stop offset=".14" stop-color="#a8824e"></stop>
      <stop offset=".46" stop-color="#f2d793"></stop>
      <stop offset=".51" stop-color="#ffe79f"></stop>
      <stop offset=".67" stop-color="#e2c07b"></stop>
      <stop offset="1" stop-color="#a67033"></stop>
    </linearGradient>
    <linearGradient id="_Новый_образец_градиента_19-2" data-name="Новый образец градиента 19" x1="24.96" y1="81.21" x2="78.69" y2="120.43" xlink:href="#_Новый_образец_градиента_19"></linearGradient>
    <radialGradient id="_Безымянный_градиент_4" data-name="Безымянный градиент 4" cx="16.89" cy="53.1" fx="16.89" fy="53.1" r="112.77" gradientUnits="userSpaceOnUse">
      <stop offset="0" stop-color="#002917"></stop>
      <stop offset="1" stop-color="#011410"></stop>
    </radialGradient>
    <linearGradient id="_Новый_образец_градиента_19-3" data-name="Новый образец градиента 19" x1="29.62" y1="71.36" x2="123.72" y2="71.36" xlink:href="#_Новый_образец_градиента_19"></linearGradient>
    <linearGradient id="_Новый_образец_градиента_19-4" data-name="Новый образец градиента 19" x1="42.36" y1="69.99" x2="109.84" y2="69.99" xlink:href="#_Новый_образец_градиента_19"></linearGradient>
    <radialGradient id="_Безымянный_градиент_48" data-name="Безымянный градиент 48" cx="73.83" cy="25" fx="73.83" fy="25" r="113.87" gradientUnits="userSpaceOnUse">
      <stop offset="0" stop-color="#011410"></stop>
      <stop offset=".36" stop-color="#005c33"></stop>
      <stop offset="1" stop-color="#011410"></stop>
    </radialGradient>
    <radialGradient id="_Безымянный_градиент_48-2" data-name="Безымянный градиент 48" cx="67.36" cy="1.32" fx="67.36" fy="1.32" r="83.35" xlink:href="#_Безымянный_градиент_48"></radialGradient>
    <radialGradient id="_Безымянный_градиент_203" data-name="Безымянный градиент 203" cx="-587.85" cy="4483.17" fx="-587.85" fy="4483.17" r="30.72" gradientTransform="translate(1059.24 -191.11) scale(1.68 .05)" gradientUnits="userSpaceOnUse">
      <stop offset="0" stop-color="#fff4b5"></stop>
      <stop offset=".5" stop-color="#797355" stop-opacity=".48"></stop>
      <stop offset=".84" stop-color="#222018" stop-opacity=".13"></stop>
      <stop offset="1" stop-color="#000" stop-opacity="0"></stop>
    </radialGradient>
    <radialGradient id="_Безымянный_градиент_203-2" data-name="Безымянный градиент 203" cx="-447.63" cy="4595.71" fx="-447.63" fy="4595.71" r="30.72" gradientTransform="translate(668.66 -190.31) scale(1.29 .05)" xlink:href="#_Безымянный_градиент_203"></radialGradient>
    <radialGradient id="_Безымянный_градиент_203-3" data-name="Безымянный градиент 203" cx="-527.47" cy="3234.89" fx="-527.47" fy="3234.89" r="30.72" gradientTransform="translate(-105.59 980.07) rotate(90) scale(1.68 -.05)" xlink:href="#_Безымянный_градиент_203"></radialGradient>
    <radialGradient id="_Безымянный_градиент_203-4" data-name="Безымянный градиент 203" cx="-368.65" cy="3347.43" fx="-368.65" fy="3347.43" r="30.72" gradientTransform="translate(-88.32 559.3) rotate(90) scale(1.29 -.05)" xlink:href="#_Безымянный_градиент_203"></radialGradient>
    <radialGradient id="_Безымянный_градиент_203-5" data-name="Безымянный градиент 203" cx="-593.71" cy="4333.94" fx="-593.71" fy="4333.94" r="30.72" gradientTransform="translate(-187.25 1088.9) rotate(90) scale(1.68 -.05)" xlink:href="#_Безымянный_градиент_203"></radialGradient>
    <radialGradient id="_Безымянный_градиент_203-6" data-name="Безымянный градиент 203" cx="-488.08" cy="4226.09" fx="-488.08" fy="4226.09" r="30.72" gradientTransform="translate(-177.72 712.51) rotate(90) scale(1.24 -.05)" xlink:href="#_Безымянный_градиент_203"></radialGradient>
    <radialGradient id="_Безымянный_градиент_85" data-name="Безымянный градиент 85" cx="-433.12" cy="4186.57" fx="-433.12" fy="4186.57" r="30.72" gradientTransform="translate(604.65 -198.51) scale(1.26 .05)" gradientUnits="userSpaceOnUse">
      <stop offset="0" stop-color="#9fffb2"></stop>
      <stop offset=".5" stop-color="#4b7954" stop-opacity=".48"></stop>
      <stop offset=".84" stop-color="#152217" stop-opacity=".13"></stop>
      <stop offset="1" stop-color="#000" stop-opacity="0"></stop>
    </radialGradient>
    <radialGradient id="_Безымянный_градиент_85-2" data-name="Безымянный градиент 85" cx="-442.97" cy="4076.95" fx="-442.97" fy="4076.95" r="30.72" gradientTransform="translate(598.5 -201.91) scale(1.26 .05)" xlink:href="#_Безымянный_градиент_85"></radialGradient>
    <radialGradient id="_Безымянный_градиент_85-3" data-name="Безымянный градиент 85" cx="701.61" cy="-1475.41" fx="701.61" fy="-1475.41" r="30.72" gradientTransform="translate(-4.43 -326.01) rotate(90) scale(.48 .05)" xlink:href="#_Безымянный_градиент_85"></radialGradient>
    <radialGradient id="_Безымянный_градиент_85-4" data-name="Безымянный градиент 85" cx="629.61" cy="-1140.83" fx="629.61" fy="-1140.83" r="30.72" gradientTransform="translate(-41.02 -263.56) rotate(90) scale(.48 .05)" xlink:href="#_Безымянный_градиент_85"></radialGradient>
    <radialGradient id="_Безымянный_градиент_85-5" data-name="Безымянный градиент 85" cx="707.5" cy="-493.22" fx="707.5" fy="-493.22" r="30.72" gradientTransform="translate(-7.5 -271) rotate(90) scale(.48 .05)" xlink:href="#_Безымянный_градиент_85"></radialGradient>
    <radialGradient id="_Безымянный_градиент_85-6" data-name="Безымянный градиент 85" cx="-940.23" cy="-7189.15" fx="-940.23" fy="-7189.15" gradientTransform="translate(-257.85 785.26) rotate(90) scale(.79 .04)" xlink:href="#_Безымянный_градиент_85"></radialGradient>
    <radialGradient id="_Безымянный_градиент_85-7" data-name="Безымянный градиент 85" cx="-895.62" cy="-7355.69" fx="-895.62" fy="-7355.69" r="30.72" gradientTransform="translate(-246.54 646.9) rotate(90) scale(.66 .04)" xlink:href="#_Безымянный_градиент_85"></radialGradient>
  <clipPath id="SvgjsClipPath1129"><rect width="1000" height="1000" x="0" y="0" rx="500" ry="500"></rect></clipPath></defs><g class="cls-16">
    <g id="_Слой_2" data-name="Слой 2">
      <g id="_Слой_1-2" data-name="Слой 1">
        <rect width="128" height="128"></rect>
        <g>
          <polygon class="cls-24" points="93.7 113.67 10.25 68.5 10.25 89.84 75.81 125.11 93.7 115.36 93.7 113.67"></polygon>
          <g class="cls-2">
            <polygon points="93.7 113.67 10.25 68.5 10.25 89.84 75.81 125.11 93.7 115.36 93.7 113.67"></polygon>
          </g>
          <polygon class="cls-23" points="93.79 113.8 75.81 123.59 10.94 88.65 10.94 68.86 93.79 113.8"></polygon>
          <polygon class="cls-22" points="123.72 40.92 123.74 43.51 123.62 43.73 70.32 72.47 119.93 99.31 119.94 99.32 119.94 102.05 102.38 111.6 29.62 73.1 29.62 71.13 105.73 31.13 123.72 40.92"></polygon>
          <polygon class="cls-25" points="123.72 40.92 123.7 43.59 123.62 43.73 70.32 72.47 119.93 99.31 119.94 99.32 119.94 102.05 102.38 111.6 29.62 73.1 29.62 71.13 105.73 31.13 123.72 40.92"></polygon>
          <polygon class="cls-1" points="69.3 71.92 119.93 99.3 119.93 99.3 102.38 108.85 32.57 71.92 31.1 71.12 105.73 31.13 123.72 40.92 123.28 41.16 67.82 71.12 69.3 71.92"></polygon>
          <polygon class="cls-21" points="10.25 63.71 10.25 32.47 66.31 4.6 85.29 14.94 85.12 17.65 30.82 45.04 30.82 73.68 10.25 63.71"></polygon>
          <polygon class="cls-19" points="84.27 15.18 28.93 42.97 28.93 70.01 10.94 61.42 10.94 32.9 66.29 5.39 84.27 15.18"></polygon>
          <g class="cls-18">
            <polygon points="10.25 32.49 28.93 42.97 28.93 72.76 10.25 63.71 10.25 32.49"></polygon>
          </g>
          <ellipse class="cls-11" cx="68.8" cy="50.57" rx="51.76" ry="4.66" transform="translate(-15.74 38.55) rotate(-28.23)"></ellipse>
          <ellipse class="cls-14" cx="92.13" cy="57.43" rx="39.57" ry="4.66" transform="translate(-16.21 50.4) rotate(-28.23)"></ellipse>
          <ellipse class="cls-3" cx="68.8" cy="91.36" rx="4.66" ry="51.76" transform="translate(-44.24 108.77) rotate(-61.77)"></ellipse>
          <ellipse class="cls-6" cx="92.13" cy="84.49" rx="4.66" ry="39.57" transform="translate(-25.89 125.71) rotate(-61.77)"></ellipse>
          <ellipse class="cls-12" cx="46.39" cy="88.59" rx="4.66" ry="51.76" transform="translate(-53.6 86.7) rotate(-61.28)"></ellipse>
          <ellipse class="cls-5" cx="50.1" cy="109.3" rx="4.66" ry="37.96" transform="translate(-69.83 100.72) rotate(-61.28)"></ellipse>
          <g class="cls-2">
            <polygon points="119.94 99.32 119.94 102.05 102.38 111.6 102.37 108.85 119.93 99.31 119.94 99.32"></polygon>
          </g>
          <g class="cls-17">
            <polygon points="28.93 72.76 30.82 73.74 30.82 45.02 85.12 17.65 85.29 14.94 84.27 15.18 28.93 42.97 28.93 72.76"></polygon>
          </g>
          <ellipse class="cls-7" cx="58.77" cy="27.18" rx="38.72" ry="4.66" transform="translate(-5.95 29.27) rotate(-26.67)"></ellipse>
          <ellipse class="cls-4" cx="40.21" cy="17.87" rx="38.72" ry="4.66" transform="translate(-3.74 19.95) rotate(-26.67)"></ellipse>
          <ellipse class="cls-15" cx="75.1" cy="9.71" rx="4.66" ry="14.7" transform="translate(30.5 70.91) rotate(-61.28)"></ellipse>
          <ellipse class="cls-13" cx="20.48" cy="37.7" rx="4.66" ry="14.7" transform="translate(-22.42 37.54) rotate(-61.28)"></ellipse>
          <ellipse class="cls-9" cx="19.09" cy="67.54" rx="4.66" ry="14.7" transform="translate(-50.41 57.74) rotate(-66.2)"></ellipse>
          <ellipse class="cls-10" cx="10.94" cy="46.91" rx="3.23" ry="24.12"></ellipse>
          <ellipse class="cls-8" cx="28.48" cy="58.9" rx="3.23" ry="20.17"></ellipse>
          <g class="cls-20">
            <polygon points="102.37 108.85 30.87 70.78 30.82 73.68 102.38 111.6 102.37 108.85"></polygon>
          </g>
        </g>
      </g>
    </g>
  </g></svg></g></g></svg>